<?xml version="1.0" standalone="no"?>
<svg
  width="600"
  height="600"
  viewBox="0 0 600 600"
  xmlns="http://www.w3.org/2000/svg"
>
  <g transform="translate(300,300)">
    <path d="M127.8,-197.6C161.9,-177,183.3,-135.2,196.8,-93.5C210.4,-51.7,216,-9.9,209.6,29.7C203.2,69.3,184.7,106.7,159.6,141.5C134.4,176.3,102.6,208.6,64.9,218.5C27.2,228.4,-16.2,215.9,-58.6,202.3C-101,188.7,-142.3,173.9,-171,145.5C-199.6,117.2,-215.6,75.2,-225.5,30.2C-235.4,-14.8,-239.1,-62.8,-226,-108.1C-212.9,-153.3,-183,-195.7,-142.5,-213.4C-102,-231,-51,-224,-2.1,-220.8C46.9,-217.6,93.7,-218.2,127.8,-197.6Z" fill="#380059" />
  </g>
</svg>
    